<svg xmlns="http://www.w3.org/2000/svg" width="820" height="480" viewBox="0 0 820 480">
<defs><marker id="arrow" markerWidth="8" markerHeight="8" refX="6" refY="3" orient="auto"><path d="M0,0 L0,6 L6,3 z" fill="#334155"/></marker></defs>
<rect width="820" height="480" fill="#f8fafc"/>
<polyline points="562.9,337.5 562.8,340.8 559.4,341.9" fill="none" stroke="#2563eb" stroke-width="4"/>
<circle cx="562.9" cy="337.5" r="10" fill="#2563eb"/><text x="574.9" y="329.5" font-size="16" font-weight="700">A t0</text>
<line x1="562.9" y1="337.5" x2="574.3" y2="320.3" stroke="#2563eb" stroke-width="3" marker-end="url(#arrow)"/>
<circle cx="562.8" cy="340.8" r="10" fill="#2563eb"/><text x="574.8" y="332.8" font-size="16" font-weight="700">A t1</text>
<line x1="562.8" y1="340.8" x2="591.8" y2="326.9" stroke="#2563eb" stroke-width="3" marker-end="url(#arrow)"/>
<circle cx="559.4" cy="341.9" r="10" fill="#2563eb"/><text x="571.4" y="333.9" font-size="16" font-weight="700">A t2</text>
<line x1="559.4" y1="341.9" x2="587.6" y2="328.3" stroke="#2563eb" stroke-width="3" marker-end="url(#arrow)"/>
<polyline points="240.0,119.0 239.8,118.8 237.1,118.1" fill="none" stroke="#dc2626" stroke-width="4"/>
<circle cx="240.0" cy="119.0" r="10" fill="#dc2626"/><text x="252.0" y="111.0" font-size="16" font-weight="700">B t0</text>
<line x1="240.0" y1="119.0" x2="321.9" y2="126.7" stroke="#dc2626" stroke-width="3" marker-end="url(#arrow)"/>
<circle cx="239.8" cy="118.8" r="10" fill="#dc2626"/><text x="251.8" y="110.8" font-size="16" font-weight="700">B t1</text>
<line x1="239.8" y1="118.8" x2="314.4" y2="128.7" stroke="#dc2626" stroke-width="3" marker-end="url(#arrow)"/>
<circle cx="237.1" cy="118.1" r="10" fill="#dc2626"/><text x="249.1" y="110.1" font-size="16" font-weight="700">B t2</text>
<line x1="237.1" y1="118.1" x2="315.6" y2="126.1" stroke="#dc2626" stroke-width="3" marker-end="url(#arrow)"/>
<text x="20" y="465" font-size="16" fill="#334155">HOI-M3 · bedroom_data01 · window 02 · 2 metric 3D tracks</text></svg>