<svg xmlns="http://www.w3.org/2000/svg" width="820" height="480" viewBox="0 0 820 480">
<defs><marker id="arrow" markerWidth="8" markerHeight="8" refX="6" refY="3" orient="auto"><path d="M0,0 L0,6 L6,3 z" fill="#334155"/></marker></defs>
<rect width="820" height="480" fill="#f8fafc"/>
<polyline points="578.5,335.6 577.1,336.2 579.1,335.8" fill="none" stroke="#2563eb" stroke-width="4"/>
<circle cx="578.5" cy="335.6" r="10" fill="#2563eb"/><text x="590.5" y="327.6" font-size="16" font-weight="700">A t0</text>
<line x1="578.5" y1="335.6" x2="583.5" y2="318.0" stroke="#2563eb" stroke-width="3" marker-end="url(#arrow)"/>
<circle cx="577.1" cy="336.2" r="10" fill="#2563eb"/><text x="589.1" y="328.2" font-size="16" font-weight="700">A t1</text>
<line x1="577.1" y1="336.2" x2="574.3" y2="319.2" stroke="#2563eb" stroke-width="3" marker-end="url(#arrow)"/>
<circle cx="579.1" cy="335.8" r="10" fill="#2563eb"/><text x="591.1" y="327.8" font-size="16" font-weight="700">A t2</text>
<line x1="579.1" y1="335.8" x2="596.2" y2="320.5" stroke="#2563eb" stroke-width="3" marker-end="url(#arrow)"/>
<polyline points="227.6,124.6 221.8,123.8 220.9,124.2" fill="none" stroke="#dc2626" stroke-width="4"/>
<circle cx="227.6" cy="124.6" r="10" fill="#dc2626"/><text x="239.6" y="116.6" font-size="16" font-weight="700">B t0</text>
<line x1="227.6" y1="124.6" x2="287.6" y2="144.7" stroke="#dc2626" stroke-width="3" marker-end="url(#arrow)"/>
<circle cx="221.8" cy="123.8" r="10" fill="#dc2626"/><text x="233.8" y="115.8" font-size="16" font-weight="700">B t1</text>
<line x1="221.8" y1="123.8" x2="285.5" y2="137.3" stroke="#dc2626" stroke-width="3" marker-end="url(#arrow)"/>
<circle cx="220.9" cy="124.2" r="10" fill="#dc2626"/><text x="232.9" y="116.2" font-size="16" font-weight="700">B t2</text>
<line x1="220.9" y1="124.2" x2="285.1" y2="139.1" stroke="#dc2626" stroke-width="3" marker-end="url(#arrow)"/>
<text x="20" y="465" font-size="16" fill="#334155">HOI-M3 · bedroom_data01 · window 06 · SMPL-X 2 tracked people 15s</text></svg>